# xmcd CD database file
# Copyright (C) 1997 Ti Kan
# 
# Track frame offsets:
#     182
#     10037
#     18840
#     28260
#     38705
#     49082
#     61907
#     71707
#     81782
#     94210
#     106822
#     117625
#     126482
#     138720
#     150960
#     162640
# 
# Disc length: 2325 seconds
# 
# Revision: 1
# Processed by: cddbd v1.4b41PL1 Copyright (c) Steve Scherf et al.
# Submitted via: DiscPlay 4.0.3
# 
DISCID=d7091310
DTITLE=Floyd Cramer - Hello Blues
DYEAR=1900
DGENRE=
TTITLE0=I'll Never Be Free
TTITLE1=The Swingin' Shepherd Blues
TTITLE2=Midnight
TTITLE3=Have I Stayed Away Too Long?
TTITLE4=Stormy Weather
TTITLE5=Trouble In Mind
TTITLE6=Tricky
TTITLE7=Blues Stay Away From Me
TTITLE8=Re-Enlistment Blues
TTITLE9=The Lonsome Road
TTITLE10=Yesterdays
TTITLE11=Forever
TTITLE12=Love Letters
TTITLE13=Red Roses For A Blue Lady
TTITLE14=Sentimental Journey
TTITLE15=Mr. Lonely
EXTD=
EXTT0=
EXTT1=
EXTT2=
EXTT3=
EXTT4=
EXTT5=
EXTT6=
EXTT7=
EXTT8=
EXTT9=
EXTT10=
EXTT11=
EXTT12=
EXTT13=
EXTT14=
EXTT15=
PLAYORDER=
